<svg xmlns="http://www.w3.org/2000/svg" width="720" height="448" viewBox="-10 -10 313.20000000000005 314"><defs><marker id="wdoc-arrow" viewBox="0 0 10 10" refX="10" refY="5" markerWidth="8" markerHeight="8" orient="auto-start-reverse"><path d="M 0 0 L 10 5 L 0 10 z" fill="currentColor" /></marker></defs><g transform="translate(38.500000000000014 0)"><rect class="wdoc-process" x="0" y="0" width="216.20000000000002" height="46" id="list_items" /><text class="wdoc-shape-text" x="108.10000000000001" y="23" font-size="14" text-anchor="middle" dominant-baseline="middle"><tspan x="108.10000000000001" dy="0em">1. List the research items</tspan></text></g><g transform="translate(30.80000000000001 74)"><rect class="wdoc-process" x="0" y="0" width="231.60000000000002" height="46" id="finding_files" /><text class="wdoc-shape-text" x="115.80000000000001" y="23" font-size="14" text-anchor="middle" dominant-baseline="middle"><tspan x="115.80000000000001" dy="0em">2. One finding file per item</tspan></text></g><g transform="translate(0 148)"><rect class="wdoc-process" x="0" y="0" width="293.20000000000005" height="46" id="do_research" /><text class="wdoc-shape-text" x="146.60000000000002" y="23" font-size="14" text-anchor="middle" dominant-baseline="middle"><tspan x="146.60000000000002" dy="0em">3. Research NOW, as the strong model</tspan></text></g><g transform="translate(46.20000000000002 222)"><polygon class="wdoc-decision" points="100.4,0 200.8,36 100.4,72 0,36" id="promote" /><text class="wdoc-shape-text" x="100.4" y="36" font-size="14" text-anchor="middle" dominant-baseline="middle"><tspan x="100.4" dy="-1.2em">Promote</tspan><tspan x="100.4" dy="1.2em">durable</tspan><tspan x="100.4" dy="1.2em">findings</tspan></text></g><polyline points="146.60000000000002,46 146.60000000000002,74" fill="none" stroke="currentColor" marker-end="url(#wdoc-arrow)" data-kind="flow" /><text class="wdoc-edge-label" x="142.60000000000002" y="60" text-anchor="middle" dominant-baseline="middle" font-size="11"></text><polyline points="146.60000000000002,120 146.60000000000002,148" fill="none" stroke="currentColor" marker-end="url(#wdoc-arrow)" data-kind="flow" /><text class="wdoc-edge-label" x="142.60000000000002" y="134" text-anchor="middle" dominant-baseline="middle" font-size="11"></text><polyline points="146.60000000000002,194 146.60000000000002,222" fill="none" stroke="currentColor" marker-end="url(#wdoc-arrow)" data-kind="flow" /><text class="wdoc-edge-label" x="142.60000000000002" y="208" text-anchor="middle" dominant-baseline="middle" font-size="11"></text></svg>