<svg xmlns="http://www.w3.org/2000/svg" width="720" height="640" viewBox="-10 -10 1310.1000000000001 92"><defs><marker id="wdoc-arrow" viewBox="0 0 10 10" refX="10" refY="5" markerWidth="8" markerHeight="8" orient="auto-start-reverse"><path d="M 0 0 L 10 5 L 0 10 z" fill="currentColor" /></marker></defs><g transform="translate(0 0)"><rect class="wdoc-process" x="0" y="0" width="200.8" height="46" id="edit" /><text class="wdoc-shape-text" x="100.4" y="23" font-size="14" text-anchor="middle" dominant-baseline="middle"><tspan x="100.4" dy="-0.6em">1. Edit the target</tspan><tspan x="100.4" dy="1.2em">state</tspan></text></g><g transform="translate(232.8 0)"><rect class="wdoc-process" x="0" y="0" width="180" height="46" id="derive" /><text class="wdoc-shape-text" x="90" y="23" font-size="14" text-anchor="middle" dominant-baseline="middle"><tspan x="90" dy="0em">2. Read the delta</tspan></text></g><g transform="translate(444.8 0)"><rect class="wdoc-process" x="0" y="0" width="193.10000000000002" height="46" id="decompose" /><text class="wdoc-shape-text" x="96.55000000000001" y="23" font-size="14" text-anchor="middle" dominant-baseline="middle"><tspan x="96.55000000000001" dy="0em">3. Decompose into specs</tspan></text></g><g transform="translate(669.9000000000001 0)"><polygon class="wdoc-decision" points="80,0 160,36 80,72 0,36" id="review" /><text class="wdoc-shape-text" x="80" y="36" font-size="14" text-anchor="middle" dominant-baseline="middle"><tspan x="80" dy="0em">Review</tspan></text></g><g transform="translate(861.9000000000001 0)"><rect class="wdoc-process" x="0" y="0" width="216.20000000000002" height="46" id="hand_off" /><text class="wdoc-shape-text" x="108.10000000000001" y="23" font-size="14" text-anchor="middle" dominant-baseline="middle"><tspan x="108.10000000000001" dy="0em">5. Hand to the implementer</tspan></text></g><g transform="translate(1110.1000000000001 0)"><rect class="wdoc-process" x="0" y="0" width="180" height="46" id="close" /><text class="wdoc-shape-text" x="90" y="23" font-size="14" text-anchor="middle" dominant-baseline="middle"><tspan x="90" dy="0em">6. Close the loop</tspan></text></g><polyline points="200.8,23 232.8,23" fill="none" stroke="currentColor" marker-end="url(#wdoc-arrow)" data-kind="flow" /><text class="wdoc-edge-label" x="216.8" y="12.4" text-anchor="middle" dominant-baseline="middle" font-size="11"></text><polyline points="412.8,23 444.8,23" fill="none" stroke="currentColor" marker-end="url(#wdoc-arrow)" data-kind="flow" /><text class="wdoc-edge-label" x="428.8" y="12.4" text-anchor="middle" dominant-baseline="middle" font-size="11"></text><polyline points="637.9000000000001,23 650,23 650,36 669.9000000000001,36" fill="none" stroke="currentColor" marker-end="url(#wdoc-arrow)" data-kind="flow" /><text class="wdoc-edge-label" x="646" y="33.40000000000009" text-anchor="middle" dominant-baseline="middle" font-size="11"></text><polyline points="669.9000000000001,36 650,36 650,50 210,50 210,23 200.8,23" fill="none" stroke="currentColor" marker-end="url(#wdoc-arrow)" data-kind="flow" /><text class="wdoc-edge-label" x="428.8500000000001" y="39.4" text-anchor="middle" dominant-baseline="middle" font-size="11">no</text><polyline points="829.9000000000001,36 840,36 840,23 861.9000000000001,23" fill="none" stroke="currentColor" marker-end="url(#wdoc-arrow)" data-kind="flow" /><text class="wdoc-edge-label" x="826.925" y="23.59999999999991" text-anchor="middle" dominant-baseline="middle" font-size="11">yes</text><polyline points="1078.1000000000001,23 1110.1000000000001,23" fill="none" stroke="currentColor" marker-end="url(#wdoc-arrow)" data-kind="flow" /><text class="wdoc-edge-label" x="1094.1000000000001" y="12.4" text-anchor="middle" dominant-baseline="middle" font-size="11"></text></svg>