<svg viewBox="0 0 256 256" xmlns="http://www.w3.org/2000/svg"><path fill="#f7df1e" d="M0 0h256v256H0z"/><path d="M67.3 213.9l19.5-11.8c3.8 6.7 7.2 12.3 15.4 12.3 7.9 0 12.8-3.1 12.8-15.1v-81.7h24v82c0 24.9-14.6 36.2-35.9 36.2-19.2 0-30.4-10-36-22zM152.4 211.4l19.5-11.3c5.2 8.5 11.9 14.7 23.8 14.7 10 0 16.4-5 16.4-11.9 0-8.3-6.6-11.2-17.6-16l-6-2.6c-17.5-7.4-29.1-16.8-29.1-36.5 0-18.2 13.8-32 35.5-32 15.4 0 26.5 5.4 34.5 19.4l-18.9 12.1c-4.2-7.4-8.7-10.4-15.6-10.4-7.1 0-11.6 4.5-11.6 10.4 0 7.2 4.5 10.2 14.9 14.7l6 2.6c20.6 8.8 32.2 17.8 32.2 38 0 21.8-17.1 33.7-40 33.7-22.4 0-36.9-10.7-44-24.6z"/></svg>
