<svg viewBox="0 0 256 255" xmlns="http://www.w3.org/2000/svg"><path fill="#3776ab" d="M126.9.1C62.5.1 66.7 28.6 66.7 28.6l.1 29.6h61.2v8.9H41.2S0 62.5 0 127.4s35.9 62.6 35.9 62.6h21.4v-30.1s-1.2-35.9 35.3-35.9h60.8s34.2.5 34.2-33.1V33.4S192.5.1 126.9.1zm-33.8 19.2c6 0 10.8 4.9 10.8 10.8 0 6-4.9 10.9-10.8 10.9-6 0-10.9-4.9-10.9-10.9 0-5.9 4.9-10.8 10.9-10.8z"/><path fill="#ffd43b" d="M128.8 254.1c64.4 0 60.2-28.5 60.2-28.5l-.1-29.6h-61.2v-8.9h86.8s41.2 4.7 41.2-60.2-35.9-62.6-35.9-62.6h-21.4v30.1s1.2 35.9-35.3 35.9h-60.8s-34.2-.5-34.2 33.1v57.5s-5.2 33.2 60.7 33.2zm33.8-19.2c-6 0-10.8-4.9-10.8-10.9 0-5.9 4.9-10.8 10.8-10.8 6 0 10.9 4.9 10.9 10.8 0 6-4.9 10.9-10.9 10.9z"/></svg>
