<svg xmlns="http://www.w3.org/2000/svg" width="720" height="700" viewBox="-10 -10 527.1 412"><defs><marker id="wdoc-arrow" viewBox="0 0 10 10" refX="10" refY="5" markerWidth="8" markerHeight="8" orient="auto-start-reverse"><path d="M 0 0 L 10 5 L 0 10 z" fill="currentColor" /></marker></defs><g transform="translate(163.55 0)"><polygon class="wdoc-terminator" points="180,22 178.8919506535624,25.44155823088508 175.59508646656383,28.798373876248842 170.1905871769531,31.98779099427003 162.81152949374527,34.93127555043441 153.63961030678928,37.55634918610404 142.90067270632258,39.798373876248846 130.8591449765592,41.60214353214409 117.81152949374527,42.92324335849338 104.07910185362078,43.729143493093034 90,44 75.92089814637924,43.729143493093034 62.18847050625474,42.92324335849338 49.1408550234408,41.6021435321441 37.099327293677426,39.798373876248846 26.360389693210728,37.55634918610404 17.188470506254745,34.931275550434414 9.809412823046898,31.98779099427003 4.404913533436186,28.798373876248846 1.1080493464376104,25.441558230885082 0,22.000000000000004 1.1080493464375962,18.558441769114925 4.404913533436158,15.201626123751169 9.809412823046884,12.012209005729973 17.188470506254717,9.068724449565593 26.360389693210706,6.443650813895957 37.099327293677405,4.201626123751158 49.14085502344078,2.3978564678559096 62.18847050625472,1.0767566415066234 75.9208981463792,0.27085650690696994 89.99999999999999,0 104.07910185362076,0.27085650690696994 117.81152949374525,1.0767566415066199 130.8591449765592,2.3978564678559025 142.90067270632255,4.201626123751154 153.63961030678925,6.443650813895951 162.81152949374524,9.068724449565586 170.1905871769531,12.012209005729966 175.59508646656383,15.201626123751153 178.8919506535624,18.558441769114914" id="g_start" /><text class="wdoc-shape-text" x="90" y="22" font-size="11.636363636363637" text-anchor="middle" dominant-baseline="middle"><tspan x="90" dy="0em">A piece of knowledge</tspan></text></g><g transform="translate(118.5 70)"><polygon class="wdoc-decision" points="135.05,0 270.1,39 135.05,78 0,39" id="g_task" /><text class="wdoc-shape-text" x="135.05" y="39" font-size="14" text-anchor="middle" dominant-baseline="middle"><tspan x="135.05" dy="-1.2em">A repeatable</tspan><tspan x="135.05" dy="1.2em">task, done in</tspan><tspan x="135.05" dy="1.2em">steps?</tspan></text></g><g transform="translate(11.550000000000011 174)"><rect class="wdoc-process" x="0" y="0" width="130" height="44" id="g_process" /><text class="wdoc-shape-text" x="65" y="22" font-size="14" text-anchor="middle" dominant-baseline="middle"><tspan x="65" dy="0em">process</tspan></text></g><g transform="translate(171.55 174)"><polygon class="wdoc-decision" points="162,0 324,39 162,78 0,39" id="g_named" /><text class="wdoc-shape-text" x="162" y="39" font-size="14" text-anchor="middle" dominant-baseline="middle"><tspan x="162" dy="-1.2em">A concrete thing</tspan><tspan x="162" dy="1.2em">with a name of its</tspan><tspan x="162" dy="1.2em">own?</tspan></text></g><g transform="translate(0 278)"><rect class="wdoc-process" x="0" y="0" width="130" height="44" id="g_entity" /><text class="wdoc-shape-text" x="65" y="22" font-size="14" text-anchor="middle" dominant-baseline="middle"><tspan x="65" dy="0em">entity</tspan></text></g><g transform="translate(160 278)"><polygon class="wdoc-decision" points="173.55,0 347.1,22 173.55,44 0,22" id="g_fact_or_concept" /><text class="wdoc-shape-text" x="173.55" y="22" font-size="11.458181818181817" text-anchor="middle" dominant-baseline="middle"><tspan x="173.55" dy="-0.6em">Is it a constant value or</tspan><tspan x="173.55" dy="1.2em">verifiable value?</tspan></text></g><g transform="translate(108.55000000000001 348)"><rect class="wdoc-process" x="0" y="0" width="130" height="44" id="g_fact" /><text class="wdoc-shape-text" x="65" y="22" font-size="14" text-anchor="middle" dominant-baseline="middle"><tspan x="65" dy="0em">fact</tspan></text></g><g transform="translate(268.55 348)"><rect class="wdoc-process" x="0" y="0" width="130" height="44" id="g_concept" /><text class="wdoc-shape-text" x="65" y="22" font-size="14" text-anchor="middle" dominant-baseline="middle"><tspan x="65" dy="0em">concept</tspan></text></g><polyline points="253.55,44 253.55,70" fill="none" stroke="currentColor" marker-end="url(#wdoc-arrow)" data-kind="default" /><polyline points="118.5,109 80,109 80,110 76.55000000000001,110 76.55000000000001,174" fill="none" stroke="currentColor" marker-end="url(#wdoc-arrow)" data-kind="yes" /><text class="wdoc-edge-label" x="63.47500000000001" y="120.525" text-anchor="middle" dominant-baseline="middle" font-size="11">yes</text><polyline points="253.55,148 253.55,160 333.55,160 333.55,174" fill="none" stroke="currentColor" marker-end="url(#wdoc-arrow)" data-kind="no" /><text class="wdoc-edge-label" x="294.55" y="149.4" text-anchor="middle" dominant-baseline="middle" font-size="11">no</text><polyline points="333.55,252 333.55,278" fill="none" stroke="currentColor" marker-end="url(#wdoc-arrow)" data-kind="no" /><text class="wdoc-edge-label" x="323.5" y="265" text-anchor="middle" dominant-baseline="middle" font-size="11">no</text><polyline points="171.55,213 150,213 150,260 140,260 140,300 130,300" fill="none" stroke="currentColor" marker-end="url(#wdoc-arrow)" data-kind="yes" /><text class="wdoc-edge-label" x="136.925" y="255.725" text-anchor="middle" dominant-baseline="middle" font-size="11">yes</text><polyline points="160,300 140,300 140,330 173.55,330 173.55,348" fill="none" stroke="currentColor" marker-end="url(#wdoc-arrow)" data-kind="yes" /><text class="wdoc-edge-label" x="140.775" y="319.4" text-anchor="middle" dominant-baseline="middle" font-size="11">yes</text><polyline points="333.55,322 333.55,348" fill="none" stroke="currentColor" marker-end="url(#wdoc-arrow)" data-kind="no" /><text class="wdoc-edge-label" x="323.5" y="335" text-anchor="middle" dominant-baseline="middle" font-size="11">no</text></svg>