<svg xmlns="http://www.w3.org/2000/svg" width="360" height="300" viewBox="-10 -10 375.20606051910534 323.20606051910534"><defs><marker id="wdoc-arrow" viewBox="0 0 10 10" refX="10" refY="5" markerWidth="8" markerHeight="8" orient="auto-start-reverse"><path d="M 0 0 L 10 5 L 0 10 z" fill="currentColor" /></marker></defs><g transform="translate(129.60303025955267 129.60303025955267)"><rect x="0" y="0" width="96" height="44" fill="#88c0d0" id="api" /><text x="48" y="22" font-size="14" text-anchor="middle" dominant-baseline="middle"><tspan x="48" dy="0em">API</tspan></text></g><g transform="translate(129.60303025955267 0)"><rect x="0" y="0" width="96" height="44" fill="#a3be8c" id="web" /><text x="48" y="22" font-size="14" text-anchor="middle" dominant-baseline="middle"><tspan x="48" dy="0em">Web</tspan></text></g><g transform="translate(259.20606051910534 129.60303025955267)"><rect x="0" y="0" width="96" height="44" fill="#a3be8c" id="db" /><text x="48" y="22" font-size="14" text-anchor="middle" dominant-baseline="middle"><tspan x="48" dy="0em">Database</tspan></text></g><g transform="translate(129.60303025955267 259.20606051910534)"><rect x="0" y="0" width="96" height="44" fill="#b48ead" id="stripe" /><text x="48" y="22" font-size="14" text-anchor="middle" dominant-baseline="middle"><tspan x="48" dy="0em">Stripe</tspan></text></g><g transform="translate(0 129.60303025955267)"><rect x="0" y="0" width="96" height="44" fill="#b48ead" id="tax" /><text x="48" y="22" font-size="14" text-anchor="middle" dominant-baseline="middle"><tspan x="48" dy="0em">Tax</tspan></text></g><line x1="177.60303025955267" y1="44" x2="177.60303025955267" y2="129.60303025955267" stroke="currentColor" marker-end="url(#wdoc-arrow)" data-kind="flow" /><line x1="225.60303025955267" y1="151.60303025955267" x2="259.20606051910534" y2="151.60303025955267" stroke="currentColor" marker-end="url(#wdoc-arrow)" data-kind="flow" /><line x1="177.60303025955267" y1="173.60303025955267" x2="177.60303025955267" y2="259.20606051910534" stroke="currentColor" marker-end="url(#wdoc-arrow)" data-kind="flow" /><line x1="129.60303025955267" y1="151.60303025955267" x2="96" y2="151.60303025955267" stroke="currentColor" marker-end="url(#wdoc-arrow)" data-kind="flow" /></svg>